<svg width="1144" height="72" viewBox="0 0 1144 72" fill="none" xmlns="http://www.w3.org/2000/svg">
<path d="M4 61C24.9889 61.0151 45.62 54.7763 63.0269 43.3437C88.7603 26.6045 112.821 0.642784 146.5 1.68342C202.858 0.325733 235.358 60.5779 289 58.7475C342.642 60.0789 374.024 -0.426476 431.5 0.186333C488.815 -0.681496 520.704 59.3803 573.561 57.9988C573.707 57.9996 573.853 58 574 58C627.084 59.7041 659.026 -0.674553 716.5 0.18848C773.974 -0.423954 805.354 60.0818 859 58.7518C912.645 60.5823 945.146 0.330387 1001.5 1.68986C1034.04 1.60531 1061.05 21.5094 1086.63 38.513C1103.88 49.8446 1122.79 60.8867 1144 61C1122.78 61.3065 1103.48 50.5303 1086.02 39.4714C1060.07 22.8217 1032.99 3.72025 1001.5 4.31014C947.154 3.25911 916.054 63.8282 859 63.2482C801.946 64.3287 769.725 4.01346 716.5 5.81152C663.275 4.26403 631.615 64.7064 574 64C573.843 64 573.686 63.9996 573.529 63.9988C516.164 64.3622 484.58 4.27122 431.5 5.81367C378.276 4.01595 346.057 64.3316 289 63.2525C231.943 63.8325 200.841 3.26379 146.5 4.31658C114.03 2.7584 89.9389 27.7554 63.6309 44.3106C45.8849 55.5372 24.9702 61.4218 4 61Z" fill="url(#paint0_linear_264_5281)"/>
<circle cx="11.5" cy="60.5" r="9.5" fill="#5AAF31" stroke="white" stroke-width="4"/>
<circle cx="291.5" cy="60.5" r="9.5" fill="#5AAF31" stroke="white" stroke-width="4"/>
<circle cx="571.5" cy="60.5" r="9.5" fill="#5AAF31" stroke="white" stroke-width="4"/>
<circle cx="851.5" cy="60.5" r="9.5" fill="#5AAF31" stroke="white" stroke-width="4"/>
<defs>
<linearGradient id="paint0_linear_264_5281" x1="4" y1="32" x2="1144" y2="32" gradientUnits="userSpaceOnUse">
<stop stop-color="#5DF0D6"/>
<stop offset="0.538462" stop-color="#4FB34C"/>
<stop offset="1" stop-color="#5DF0D6"/>
</linearGradient>
</defs>
</svg>
