<svg width="1335" height="183" viewBox="0 0 1335 183" fill="none" xmlns="http://www.w3.org/2000/svg">
<path d="M0 4C23.9855 4.02891 47.7255 9.80472 68.6094 21.3573C99.3944 38.5498 128.949 64.6909 166.875 63.3158C230.415 65.5749 272.559 3.67598 333.75 6.25202C394.941 4.1752 436.117 66.3915 500.625 64.8134C564.987 66.6445 606.582 4.84033 667.094 7.00071C667.229 7.00024 667.365 7 667.5 7C728.208 4.58244 769.868 66.6399 834.375 64.8117C898.881 66.3894 940.057 4.17276 1001.25 6.24859C1062.44 3.67239 1104.59 65.571 1168.12 63.3106C1204.99 63.5534 1237.26 43.9341 1267.9 26.4147C1288.54 14.8032 1310.83 4.06297 1335 4C1335 4 1335 4 1335 4C1310.84 3.64757 1288.19 14.0926 1267.35 25.4157C1236.37 42.5427 1204.12 61.4124 1168.12 60.6894C1106.33 62.5264 1065.39 0.230262 1001.25 1.75141C937.107 -0.270101 895.204 61.7079 834.375 59.1883C773.545 61.4575 732.128 -0.6798 667.5 1C667.358 1 667.215 1.00025 667.073 1.00075C602.652 -0.409164 561.321 61.4527 500.625 59.1866C439.796 61.7058 397.895 -0.272548 333.75 1.74798C269.605 0.226679 228.671 62.5224 166.875 60.6842C129.937 62.5395 100.496 37.2993 69.1423 20.3495C47.9409 9.03294 23.9708 3.62549 0 4Z" fill="url(#paint0_linear_273_743)"/>
<path d="M0 179C23.9855 178.971 47.7255 173.195 68.6094 161.643C99.3944 144.45 128.949 118.309 166.875 119.684C230.415 117.425 272.559 179.324 333.75 176.748C394.941 178.825 436.117 116.608 500.625 118.187C564.987 116.356 606.582 178.16 667.094 175.999C667.229 176 667.365 176 667.5 176C728.208 178.418 769.868 116.36 834.375 118.188C898.881 116.611 940.057 178.827 1001.25 176.751C1062.44 179.328 1104.59 117.429 1168.12 119.689C1204.99 119.447 1237.26 139.066 1267.9 156.585C1288.54 168.197 1310.83 178.937 1335 179C1335 179 1335 179 1335 179C1310.84 179.352 1288.19 168.907 1267.35 157.584C1236.37 140.457 1204.12 121.588 1168.12 122.311C1106.33 120.474 1065.39 182.77 1001.25 181.249C937.107 183.27 895.204 121.292 834.375 123.812C773.545 121.543 732.128 183.68 667.5 182C667.358 182 667.215 182 667.073 181.999C602.652 183.409 561.321 121.547 500.625 123.813C439.796 121.294 397.895 183.273 333.75 181.252C269.605 182.773 228.671 120.478 166.875 122.316C129.937 120.46 100.496 145.701 69.1423 162.65C47.9409 173.967 23.9708 179.375 0 179Z" fill="url(#paint1_linear_273_743)"/>
<defs>
<linearGradient id="paint0_linear_273_743" x1="0" y1="33" x2="1335" y2="33" gradientUnits="userSpaceOnUse">
<stop stop-color="#5DF0D6"/>
<stop offset="0.538462" stop-color="#4FB34C"/>
<stop offset="1" stop-color="#5DF0D6"/>
</linearGradient>
<linearGradient id="paint1_linear_273_743" x1="0" y1="150" x2="1335" y2="150" gradientUnits="userSpaceOnUse">
<stop stop-color="#5DF0D6"/>
<stop offset="0.538462" stop-color="#4FB34C"/>
<stop offset="1" stop-color="#5DF0D6"/>
</linearGradient>
</defs>
</svg>
