<svg width="1335" height="183" viewBox="0 0 1335 183" fill="none" xmlns="http://www.w3.org/2000/svg">
<path d="M0 4C23.9855 4.02891 47.7255 9.80472 68.6094 21.3573C99.3944 38.5498 128.949 64.6909 166.875 63.3158C230.415 65.5749 272.559 3.67598 333.75 6.25202C394.941 4.1752 436.117 66.3915 500.625 64.8134C564.987 66.6445 606.582 4.84033 667.094 7.00071C667.229 7.00024 667.365 7 667.5 7C728.208 4.58244 769.868 66.6399 834.375 64.8117C898.881 66.3894 940.057 4.17276 1001.25 6.24859C1062.44 3.67239 1104.59 65.571 1168.12 63.3106C1204.99 63.5534 1237.26 43.9341 1267.9 26.4147C1288.54 14.8032 1310.83 4.06297 1335 4C1335 4 1335 4 1335 4C1310.84 3.64757 1288.19 14.0926 1267.35 25.4157C1236.37 42.5427 1204.12 61.4124 1168.12 60.6894C1106.33 62.5264 1065.39 0.230262 1001.25 1.75141C937.107 -0.270101 895.204 61.7079 834.375 59.1883C773.545 61.4575 732.128 -0.6798 667.5 1C667.358 1 667.215 1.00025 667.073 1.00075C602.652 -0.409164 561.321 61.4527 500.625 59.1866C439.796 61.7058 397.895 -0.272548 333.75 1.74798C269.605 0.226679 228.671 62.5224 166.875 60.6842C129.937 62.5395 100.496 37.2993 69.1423 20.3495C47.9409 9.03294 23.9708 3.62549 0 4Z" fill="url(#paint0_linear_273_743)"/>
<path d="M0 179C23.9855 178.971 47.7255 173.195 68.6094 161.643C99.3944 144.45 128.949 118.309 166.875 119.684C230.415 117.425 272.559 179.324 333.75 176.748C394.941 178.825 436.117 116.608 500.625 118.187C564.987 116.356 606.582 178.16 667.094 175.999C667.229 176 667.365 176 667.5 176C728.208 178.418 769.868 116.36 834.375 118.188C898.881 116.611 940.057 178.827 1001.25 176.751C1062.44 179.328 1104.59 117.429 1168.12 119.689C1204.99 119.447 1237.26 139.066 1267.9 156.585C1288.54 168.197 1310.83 178.937 1335 179C1335 179 1335 179 1335 179C1310.84 179.352 1288.19 168.907 1267.35 157.584C1236.37 140.457 1204.12 121.588 1168.12 122.311C1106.33 120.474 1065.39 182.77 1001.25 181.249C937.107 183.27 895.204 121.292 834.375 123.812C773.545 121.543 732.128 183.68 667.5 182C667.358 182 667.215 182 667.073 181.999C602.652 183.409 561.321 121.547 500.625 123.813C439.796 121.294 397.895 183.273 333.75 181.252C269.605 182.773 228.671 120.478 166.875 122.316C129.937 120.46 100.496 145.701 69.1423 162.65C47.9409 173.967 23.9708 179.375 0 179Z" fill="url(#paint1_linear_273_743)"/>
<rect x="93" y="17" width="150" height="150" rx="75" fill="#132B1B" fill-opacity="0.3"/>
<path d="M115.805 79.6V105.5H112.142V82.819H106.296V79.6H115.805ZM129.869 79.304C133.347 79.304 136.024 80.4263 137.898 82.671C139.798 84.9157 140.747 88.0977 140.747 92.217C140.747 95.103 140.229 97.5697 139.193 99.617C138.182 101.64 136.751 103.181 134.901 104.242C133.076 105.278 130.942 105.796 128.5 105.796C127.242 105.796 126.058 105.673 124.948 105.426C123.838 105.155 122.876 104.772 122.062 104.279L123.468 101.393C124.726 102.207 126.391 102.614 128.463 102.614C131.152 102.614 133.249 101.788 134.753 100.135C136.283 98.4577 137.047 96.028 137.047 92.846V91.921C136.307 93.031 135.284 93.882 133.976 94.474C132.669 95.0413 131.201 95.325 129.573 95.325C127.871 95.325 126.342 95.0043 124.985 94.363C123.653 93.7217 122.605 92.809 121.84 91.625C121.1 90.4163 120.73 89.035 120.73 87.481C120.73 85.853 121.125 84.4223 121.914 83.189C122.728 81.9557 123.826 81.006 125.207 80.34C126.589 79.6493 128.143 79.304 129.869 79.304ZM130.202 92.328C131.362 92.328 132.398 92.106 133.31 91.662C134.223 91.218 134.926 90.6137 135.419 89.849C135.937 89.0843 136.196 88.2333 136.196 87.296C136.196 86.3833 135.95 85.557 135.456 84.817C134.988 84.0523 134.285 83.448 133.347 83.004C132.435 82.5353 131.325 82.301 130.017 82.301C128.315 82.301 126.934 82.7573 125.873 83.67C124.837 84.5827 124.319 85.8037 124.319 87.333C124.319 88.8623 124.85 90.0833 125.91 90.996C126.971 91.884 128.402 92.328 130.202 92.328ZM160.142 91.921C161.622 92.4883 162.757 93.3023 163.546 94.363C164.336 95.4237 164.73 96.694 164.73 98.174C164.73 99.728 164.311 101.085 163.472 102.244C162.634 103.379 161.437 104.254 159.883 104.871C158.329 105.488 156.504 105.796 154.407 105.796C152.335 105.796 150.522 105.488 148.968 104.871C147.439 104.254 146.255 103.379 145.416 102.244C144.578 101.085 144.158 99.728 144.158 98.174C144.158 96.694 144.541 95.4237 145.305 94.363C146.095 93.3023 147.229 92.4883 148.709 91.921C147.525 91.3537 146.625 90.6013 146.008 89.664C145.392 88.7267 145.083 87.6167 145.083 86.334C145.083 84.9033 145.466 83.6577 146.23 82.597C147.02 81.5363 148.117 80.7223 149.523 80.155C150.929 79.5877 152.557 79.304 154.407 79.304C156.282 79.304 157.922 79.5877 159.328 80.155C160.759 80.7223 161.857 81.5363 162.621 82.597C163.411 83.6577 163.805 84.9033 163.805 86.334C163.805 87.592 163.485 88.702 162.843 89.664C162.227 90.6013 161.326 91.3537 160.142 91.921ZM154.407 82.301C152.656 82.301 151.275 82.6833 150.263 83.448C149.252 84.188 148.746 85.1993 148.746 86.482C148.746 87.7647 149.24 88.776 150.226 89.516C151.238 90.256 152.631 90.626 154.407 90.626C156.208 90.626 157.614 90.256 158.625 89.516C159.661 88.776 160.179 87.7647 160.179 86.482C160.179 85.1993 159.649 84.188 158.588 83.448C157.552 82.6833 156.159 82.301 154.407 82.301ZM154.407 102.799C156.455 102.799 158.07 102.38 159.254 101.541C160.438 100.678 161.03 99.5183 161.03 98.063C161.03 96.6323 160.438 95.51 159.254 94.696C158.07 93.8573 156.455 93.438 154.407 93.438C152.36 93.438 150.757 93.8573 149.597 94.696C148.438 95.51 147.858 96.6323 147.858 98.063C147.858 99.5183 148.438 100.678 149.597 101.541C150.757 102.38 152.36 102.799 154.407 102.799ZM178.7 105.796C176.652 105.796 174.827 105.278 173.224 104.242C171.645 103.181 170.399 101.652 169.487 99.654C168.574 97.656 168.118 95.288 168.118 92.55C168.118 89.812 168.574 87.444 169.487 85.446C170.399 83.448 171.645 81.931 173.224 80.895C174.827 79.8343 176.652 79.304 178.7 79.304C180.722 79.304 182.523 79.8343 184.102 80.895C185.705 81.931 186.963 83.448 187.876 85.446C188.788 87.444 189.245 89.812 189.245 92.55C189.245 95.288 188.788 97.656 187.876 99.654C186.963 101.652 185.705 103.181 184.102 104.242C182.523 105.278 180.722 105.796 178.7 105.796ZM178.7 102.503C180.772 102.503 182.424 101.652 183.658 99.95C184.916 98.248 185.545 95.7813 185.545 92.55C185.545 89.3187 184.916 86.852 183.658 85.15C182.424 83.448 180.772 82.597 178.7 82.597C176.603 82.597 174.926 83.448 173.668 85.15C172.434 86.852 171.818 89.3187 171.818 92.55C171.818 95.7813 172.434 98.248 173.668 99.95C174.926 101.652 176.603 102.503 178.7 102.503ZM193.382 93.808H203.335V96.879H193.382V93.808ZM226.963 95.806C226.963 96.0773 226.938 96.435 226.889 96.879H210.979C211.201 98.6057 211.953 99.9993 213.236 101.06C214.543 102.096 216.159 102.614 218.083 102.614C220.426 102.614 222.313 101.825 223.744 100.246L225.705 102.54C224.817 103.576 223.707 104.365 222.375 104.908C221.067 105.451 219.6 105.722 217.972 105.722C215.9 105.722 214.062 105.303 212.459 104.464C210.855 103.601 209.61 102.404 208.722 100.875C207.858 99.3457 207.427 97.619 207.427 95.695C207.427 93.7957 207.846 92.0813 208.685 90.552C209.548 89.0227 210.72 87.8387 212.2 87C213.704 86.1367 215.394 85.705 217.269 85.705C219.143 85.705 220.808 86.1367 222.264 87C223.744 87.8387 224.891 89.0227 225.705 90.552C226.543 92.0813 226.963 93.8327 226.963 95.806ZM217.269 88.702C215.567 88.702 214.136 89.22 212.977 90.256C211.842 91.292 211.176 92.6487 210.979 94.326H223.559C223.361 92.6733 222.683 91.329 221.524 90.293C220.389 89.2323 218.971 88.702 217.269 88.702Z" fill="white"/>
<rect x="343" y="17" width="150" height="150" rx="75" fill="#132B1B" fill-opacity="0.3"/>
<path d="M387.305 79.6V105.5H383.642V82.819H377.796V79.6H387.305ZM401.369 79.304C404.847 79.304 407.524 80.4263 409.398 82.671C411.298 84.9157 412.247 88.0977 412.247 92.217C412.247 95.103 411.729 97.5697 410.693 99.617C409.682 101.64 408.251 103.181 406.401 104.242C404.576 105.278 402.442 105.796 400 105.796C398.742 105.796 397.558 105.673 396.448 105.426C395.338 105.155 394.376 104.772 393.562 104.279L394.968 101.393C396.226 102.207 397.891 102.614 399.963 102.614C402.652 102.614 404.749 101.788 406.253 100.135C407.783 98.4577 408.547 96.028 408.547 92.846V91.921C407.807 93.031 406.784 93.882 405.476 94.474C404.169 95.0413 402.701 95.325 401.073 95.325C399.371 95.325 397.842 95.0043 396.485 94.363C395.153 93.7217 394.105 92.809 393.34 91.625C392.6 90.4163 392.23 89.035 392.23 87.481C392.23 85.853 392.625 84.4223 393.414 83.189C394.228 81.9557 395.326 81.006 396.707 80.34C398.089 79.6493 399.643 79.304 401.369 79.304ZM401.702 92.328C402.862 92.328 403.898 92.106 404.81 91.662C405.723 91.218 406.426 90.6137 406.919 89.849C407.437 89.0843 407.696 88.2333 407.696 87.296C407.696 86.3833 407.45 85.557 406.956 84.817C406.488 84.0523 405.785 83.448 404.847 83.004C403.935 82.5353 402.825 82.301 401.517 82.301C399.815 82.301 398.434 82.7573 397.373 83.67C396.337 84.5827 395.819 85.8037 395.819 87.333C395.819 88.8623 396.35 90.0833 397.41 90.996C398.471 91.884 399.902 92.328 401.702 92.328ZM424.205 79.304C427.683 79.304 430.36 80.4263 432.234 82.671C434.134 84.9157 435.083 88.0977 435.083 92.217C435.083 95.103 434.565 97.5697 433.529 99.617C432.518 101.64 431.087 103.181 429.237 104.242C427.412 105.278 425.278 105.796 422.836 105.796C421.578 105.796 420.394 105.673 419.284 105.426C418.174 105.155 417.212 104.772 416.398 104.279L417.804 101.393C419.062 102.207 420.727 102.614 422.799 102.614C425.488 102.614 427.585 101.788 429.089 100.135C430.619 98.4577 431.383 96.028 431.383 92.846V91.921C430.643 93.031 429.62 93.882 428.312 94.474C427.005 95.0413 425.537 95.325 423.909 95.325C422.207 95.325 420.678 95.0043 419.321 94.363C417.989 93.7217 416.941 92.809 416.176 91.625C415.436 90.4163 415.066 89.035 415.066 87.481C415.066 85.853 415.461 84.4223 416.25 83.189C417.064 81.9557 418.162 81.006 419.543 80.34C420.925 79.6493 422.479 79.304 424.205 79.304ZM424.538 92.328C425.698 92.328 426.734 92.106 427.646 91.662C428.559 91.218 429.262 90.6137 429.755 89.849C430.273 89.0843 430.532 88.2333 430.532 87.296C430.532 86.3833 430.286 85.557 429.792 84.817C429.324 84.0523 428.621 83.448 427.683 83.004C426.771 82.5353 425.661 82.301 424.353 82.301C422.651 82.301 421.27 82.7573 420.209 83.67C419.173 84.5827 418.655 85.8037 418.655 87.333C418.655 88.8623 419.186 90.0833 420.246 90.996C421.307 91.884 422.738 92.328 424.538 92.328ZM456.738 102.281V105.5H438.127V102.984L448.672 92.809C449.954 91.5757 450.818 90.515 451.262 89.627C451.706 88.7143 451.928 87.8017 451.928 86.889C451.928 85.5323 451.447 84.484 450.485 83.744C449.547 82.9793 448.191 82.597 446.415 82.597C443.553 82.597 441.346 83.5343 439.792 85.409L437.276 83.226C438.287 81.9927 439.607 81.0307 441.235 80.34C442.887 79.6493 444.725 79.304 446.748 79.304C449.461 79.304 451.619 79.9577 453.223 81.265C454.826 82.5477 455.628 84.299 455.628 86.519C455.628 87.9003 455.332 89.2077 454.74 90.441C454.148 91.6743 453.025 93.0803 451.373 94.659L443.455 102.281H456.738Z" fill="white"/>
<rect x="593" y="17" width="150" height="150" rx="75" fill="#132B1B" fill-opacity="0.3"/>
<path d="M636.805 79.6V105.5H633.142V82.819H627.296V79.6H636.805ZM650.869 79.304C654.347 79.304 657.024 80.4263 658.898 82.671C660.798 84.9157 661.747 88.0977 661.747 92.217C661.747 95.103 661.229 97.5697 660.193 99.617C659.182 101.64 657.751 103.181 655.901 104.242C654.076 105.278 651.942 105.796 649.5 105.796C648.242 105.796 647.058 105.673 645.948 105.426C644.838 105.155 643.876 104.772 643.062 104.279L644.468 101.393C645.726 102.207 647.391 102.614 649.463 102.614C652.152 102.614 654.249 101.788 655.753 100.135C657.283 98.4577 658.047 96.028 658.047 92.846V91.921C657.307 93.031 656.284 93.882 654.976 94.474C653.669 95.0413 652.201 95.325 650.573 95.325C648.871 95.325 647.342 95.0043 645.985 94.363C644.653 93.7217 643.605 92.809 642.84 91.625C642.1 90.4163 641.73 89.035 641.73 87.481C641.73 85.853 642.125 84.4223 642.914 83.189C643.728 81.9557 644.826 81.006 646.207 80.34C647.589 79.6493 649.143 79.304 650.869 79.304ZM651.202 92.328C652.362 92.328 653.398 92.106 654.31 91.662C655.223 91.218 655.926 90.6137 656.419 89.849C656.937 89.0843 657.196 88.2333 657.196 87.296C657.196 86.3833 656.95 85.557 656.456 84.817C655.988 84.0523 655.285 83.448 654.347 83.004C653.435 82.5353 652.325 82.301 651.017 82.301C649.315 82.301 647.934 82.7573 646.873 83.67C645.837 84.5827 645.319 85.8037 645.319 87.333C645.319 88.8623 645.85 90.0833 646.91 90.996C647.971 91.884 649.402 92.328 651.202 92.328ZM673.705 79.304C677.183 79.304 679.86 80.4263 681.734 82.671C683.634 84.9157 684.583 88.0977 684.583 92.217C684.583 95.103 684.065 97.5697 683.029 99.617C682.018 101.64 680.587 103.181 678.737 104.242C676.912 105.278 674.778 105.796 672.336 105.796C671.078 105.796 669.894 105.673 668.784 105.426C667.674 105.155 666.712 104.772 665.898 104.279L667.304 101.393C668.562 102.207 670.227 102.614 672.299 102.614C674.988 102.614 677.085 101.788 678.589 100.135C680.119 98.4577 680.883 96.028 680.883 92.846V91.921C680.143 93.031 679.12 93.882 677.812 94.474C676.505 95.0413 675.037 95.325 673.409 95.325C671.707 95.325 670.178 95.0043 668.821 94.363C667.489 93.7217 666.441 92.809 665.676 91.625C664.936 90.4163 664.566 89.035 664.566 87.481C664.566 85.853 664.961 84.4223 665.75 83.189C666.564 81.9557 667.662 81.006 669.043 80.34C670.425 79.6493 671.979 79.304 673.705 79.304ZM674.038 92.328C675.198 92.328 676.234 92.106 677.146 91.662C678.059 91.218 678.762 90.6137 679.255 89.849C679.773 89.0843 680.032 88.2333 680.032 87.296C680.032 86.3833 679.786 85.557 679.292 84.817C678.824 84.0523 678.121 83.448 677.183 83.004C676.271 82.5353 675.161 82.301 673.853 82.301C672.151 82.301 670.77 82.7573 669.709 83.67C668.673 84.5827 668.155 85.8037 668.155 87.333C668.155 88.8623 668.686 90.0833 669.746 90.996C670.807 91.884 672.238 92.328 674.038 92.328ZM706.759 79.6V82.116L696.288 105.5H692.366L702.615 82.819H690.775V87.444H687.223V79.6H706.759Z" fill="white"/>
<rect x="843" y="17" width="150" height="150" rx="75" fill="#132B1B" fill-opacity="0.3"/>
<path d="M897.48 102.281V105.5H878.869V102.984L889.414 92.809C890.697 91.5757 891.56 90.515 892.004 89.627C892.448 88.7143 892.67 87.8017 892.67 86.889C892.67 85.5323 892.189 84.484 891.227 83.744C890.29 82.9793 888.933 82.597 887.157 82.597C884.296 82.597 882.088 83.5343 880.534 85.409L878.018 83.226C879.029 81.9927 880.349 81.0307 881.977 80.34C883.63 79.6493 885.467 79.304 887.49 79.304C890.203 79.304 892.362 79.9577 893.965 81.265C895.568 82.5477 896.37 84.299 896.37 86.519C896.37 87.9003 896.074 89.2077 895.482 90.441C894.89 91.6743 893.768 93.0803 892.115 94.659L884.197 102.281H897.48ZM910.996 105.796C908.948 105.796 907.123 105.278 905.52 104.242C903.941 103.181 902.695 101.652 901.783 99.654C900.87 97.656 900.414 95.288 900.414 92.55C900.414 89.812 900.87 87.444 901.783 85.446C902.695 83.448 903.941 81.931 905.52 80.895C907.123 79.8343 908.948 79.304 910.996 79.304C913.018 79.304 914.819 79.8343 916.398 80.895C918.001 81.931 919.259 83.448 920.172 85.446C921.084 87.444 921.541 89.812 921.541 92.55C921.541 95.288 921.084 97.656 920.172 99.654C919.259 101.652 918.001 103.181 916.398 104.242C914.819 105.278 913.018 105.796 910.996 105.796ZM910.996 102.503C913.068 102.503 914.72 101.652 915.954 99.95C917.212 98.248 917.841 95.7813 917.841 92.55C917.841 89.3187 917.212 86.852 915.954 85.15C914.72 83.448 913.068 82.597 910.996 82.597C908.899 82.597 907.222 83.448 905.964 85.15C904.73 86.852 904.114 89.3187 904.114 92.55C904.114 95.7813 904.73 98.248 905.964 99.95C907.222 101.652 908.899 102.503 910.996 102.503ZM933.013 79.6V105.5H929.35V82.819H923.504V79.6H933.013ZM946.078 89.923C949.778 89.923 952.492 90.626 954.218 92.032C955.97 93.4133 956.845 95.3127 956.845 97.73C956.845 99.2593 956.475 100.641 955.735 101.874C955.02 103.083 953.922 104.045 952.442 104.76C950.987 105.451 949.186 105.796 947.04 105.796C945.215 105.796 943.451 105.525 941.749 104.982C940.047 104.415 938.641 103.638 937.531 102.651L939.233 99.728C940.121 100.567 941.256 101.245 942.637 101.763C944.019 102.256 945.474 102.503 947.003 102.503C948.952 102.503 950.457 102.096 951.517 101.282C952.603 100.443 953.145 99.3087 953.145 97.878C953.145 96.324 952.553 95.1523 951.369 94.363C950.185 93.549 948.163 93.142 945.301 93.142H939.418L940.787 79.6H955.402V82.819H943.895L943.192 89.923H946.078Z" fill="white"/>
<rect x="1093" y="17" width="150" height="150" rx="75" fill="#132B1B" fill-opacity="0.3"/>
<path d="M1141.98 102.281V105.5H1123.37V102.984L1133.91 92.809C1135.2 91.5757 1136.06 90.515 1136.5 89.627C1136.95 88.7143 1137.17 87.8017 1137.17 86.889C1137.17 85.5323 1136.69 84.484 1135.73 83.744C1134.79 82.9793 1133.43 82.597 1131.66 82.597C1128.8 82.597 1126.59 83.5343 1125.03 85.409L1122.52 83.226C1123.53 81.9927 1124.85 81.0307 1126.48 80.34C1128.13 79.6493 1129.97 79.304 1131.99 79.304C1134.7 79.304 1136.86 79.9577 1138.47 81.265C1140.07 82.5477 1140.87 84.299 1140.87 86.519C1140.87 87.9003 1140.57 89.2077 1139.98 90.441C1139.39 91.6743 1138.27 93.0803 1136.62 94.659L1128.7 102.281H1141.98ZM1155.5 105.796C1153.45 105.796 1151.62 105.278 1150.02 104.242C1148.44 103.181 1147.2 101.652 1146.28 99.654C1145.37 97.656 1144.91 95.288 1144.91 92.55C1144.91 89.812 1145.37 87.444 1146.28 85.446C1147.2 83.448 1148.44 81.931 1150.02 80.895C1151.62 79.8343 1153.45 79.304 1155.5 79.304C1157.52 79.304 1159.32 79.8343 1160.9 80.895C1162.5 81.931 1163.76 83.448 1164.67 85.446C1165.58 87.444 1166.04 89.812 1166.04 92.55C1166.04 95.288 1165.58 97.656 1164.67 99.654C1163.76 101.652 1162.5 103.181 1160.9 104.242C1159.32 105.278 1157.52 105.796 1155.5 105.796ZM1155.5 102.503C1157.57 102.503 1159.22 101.652 1160.45 99.95C1161.71 98.248 1162.34 95.7813 1162.34 92.55C1162.34 89.3187 1161.71 86.852 1160.45 85.15C1159.22 83.448 1157.57 82.597 1155.5 82.597C1153.4 82.597 1151.72 83.448 1150.46 85.15C1149.23 86.852 1148.61 89.3187 1148.61 92.55C1148.61 95.7813 1149.23 98.248 1150.46 99.95C1151.72 101.652 1153.4 102.503 1155.5 102.503ZM1187.69 102.281V105.5H1169.08V102.984L1179.62 92.809C1180.9 91.5757 1181.77 90.515 1182.21 89.627C1182.66 88.7143 1182.88 87.8017 1182.88 86.889C1182.88 85.5323 1182.4 84.484 1181.44 83.744C1180.5 82.9793 1179.14 82.597 1177.37 82.597C1174.5 82.597 1172.3 83.5343 1170.74 85.409L1168.23 83.226C1169.24 81.9927 1170.56 81.0307 1172.19 80.34C1173.84 79.6493 1175.68 79.304 1177.7 79.304C1180.41 79.304 1182.57 79.9577 1184.17 81.265C1185.78 82.5477 1186.58 84.299 1186.58 86.519C1186.58 87.9003 1186.28 89.2077 1185.69 90.441C1185.1 91.6743 1183.98 93.0803 1182.32 94.659L1174.41 102.281H1187.69ZM1212.58 99.136H1207.66V105.5H1204.07V99.136H1189.67V96.546L1202.92 79.6H1206.92L1194.22 95.954H1204.18V90.33H1207.66V95.954H1212.58V99.136Z" fill="white"/>
<defs>
<linearGradient id="paint0_linear_273_743" x1="0" y1="33" x2="1335" y2="33" gradientUnits="userSpaceOnUse">
<stop stop-color="#5DF0D6"/>
<stop offset="0.538462" stop-color="#4FB34C"/>
<stop offset="1" stop-color="#5DF0D6"/>
</linearGradient>
<linearGradient id="paint1_linear_273_743" x1="0" y1="150" x2="1335" y2="150" gradientUnits="userSpaceOnUse">
<stop stop-color="#5DF0D6"/>
<stop offset="0.538462" stop-color="#4FB34C"/>
<stop offset="1" stop-color="#5DF0D6"/>
</linearGradient>
</defs>
</svg>
